<svg xmlns="http://www.w3.org/2000/svg" xmlns:xlink="http://www.w3.org/1999/xlink" width="512" zoomAndPan="magnify" viewBox="0 0 384 383.999986" height="512" preserveAspectRatio="xMidYMid meet" version="1.2"><g id="d191cd2a07"><rect x="0" width="384" y="0" height="383.999986" style="fill:#ffffff;fill-opacity:1;stroke:none;"/><rect x="0" width="384" y="0" height="383.999986" style="fill:#ffffff;fill-opacity:1;stroke:none;"/><rect x="0" width="384" y="0" height="383.999986" style="fill:#0d181c;fill-opacity:1;stroke:none;"/><path style=" stroke:none;fill-rule:nonzero;fill:#ffffff;fill-opacity:1;" d="M 268.675781 204.605469 C 266.058594 201.210938 262.859375 198.59375 259.074219 196.753906 C 255.285156 194.917969 251.222656 193.722656 246.878906 193.164062 C 242.535156 192.609375 238.582031 192.332031 235.019531 192.332031 C 232.347656 192.445312 230.117188 192.582031 228.339844 192.75 C 226.554688 192.914062 225.5 193 225.164062 193 L 224.496094 193 C 222.933594 193.113281 221.992188 192.496094 221.65625 191.160156 C 221.320312 189.824219 222.101562 188.433594 223.996094 186.984375 C 225.773438 185.648438 227.976562 184.144531 230.59375 182.476562 C 233.207031 180.804688 235.742188 178.746094 238.191406 176.292969 C 240.640625 173.847656 242.726562 170.867188 244.457031 167.359375 C 246.179688 163.851562 247.046875 159.59375 247.046875 154.582031 C 247.046875 150.015625 246.070312 146.203125 244.121094 143.136719 C 242.171875 140.078125 239.640625 137.628906 236.519531 135.789062 C 233.402344 133.949219 229.949219 132.644531 226.164062 131.863281 C 222.375 131.085938 218.703125 130.691406 215.140625 130.691406 C 211.019531 130.691406 207.378906 130.996094 203.433594 132.019531 C 199.851562 132.949219 196.046875 134.335938 192.296875 134.207031 C 189.421875 134.109375 186.480469 132.902344 183.710938 132.226562 C 180.398438 131.421875 176.882812 130.761719 173.546875 130.691406 C 172.375 130.667969 168.855469 130.691406 168.855469 130.691406 C 165.292969 130.691406 161.617188 131.085938 157.832031 131.863281 C 154.046875 132.644531 150.59375 133.949219 147.476562 135.789062 C 144.359375 137.625 141.824219 140.074219 139.875 143.136719 C 137.925781 146.203125 136.949219 150.015625 136.949219 154.582031 C 136.949219 159.59375 137.8125 163.851562 139.539062 167.359375 C 141.269531 170.867188 143.355469 173.847656 145.804688 176.292969 C 148.253906 178.746094 150.789062 180.804688 153.402344 182.476562 C 156.019531 184.144531 158.21875 185.648438 160 186.984375 C 161.894531 188.433594 162.675781 189.824219 162.339844 191.160156 C 162.007812 192.496094 161.0625 193.113281 159.5 193 L 158.832031 193 C 158.496094 193 157.441406 192.914062 155.660156 192.75 C 153.878906 192.582031 151.648438 192.445312 148.976562 192.332031 C 145.414062 192.332031 141.460938 192.609375 137.117188 193.164062 C 132.773438 193.722656 128.710938 194.917969 124.921875 196.753906 C 121.136719 198.59375 117.9375 201.210938 115.320312 204.605469 C 112.703125 208.003906 111.394531 212.488281 111.394531 218.050781 C 111.394531 225.066406 112.898438 230.859375 115.90625 235.425781 C 118.910156 239.992188 122.699219 243.609375 127.261719 246.28125 C 131.832031 248.953125 136.867188 250.792969 142.378906 251.792969 C 147.890625 252.796875 153.152344 253.296875 158.164062 253.296875 C 163.945312 253.296875 169.773438 253.132812 175.457031 251.964844 C 180.941406 250.839844 186.355469 247.386719 192 247.386719 C 197.539062 247.386719 202.175781 251 207.421875 252.191406 C 213.375 253.546875 219.769531 253.296875 225.832031 253.296875 C 230.839844 253.296875 236.101562 252.796875 241.613281 251.792969 C 247.128906 250.792969 252.164062 248.953125 256.730469 246.28125 C 261.292969 243.609375 265.082031 239.992188 268.089844 235.425781 C 271.097656 230.859375 272.601562 225.066406 272.601562 218.050781 C 272.601562 212.488281 271.289062 208.003906 268.675781 204.605469 Z M 167.855469 248.035156 C 165.074219 249.429688 162.121094 250.125 159.003906 250.125 C 150.761719 250.125 144.332031 247.367188 139.707031 241.855469 C 135.089844 236.34375 132.777344 229.136719 132.777344 220.226562 C 132.777344 212.433594 135.171875 206.417969 139.957031 202.1875 C 144.75 197.957031 150.925781 195.839844 158.5 195.839844 C 161.507812 195.839844 163.59375 194.917969 164.765625 193.082031 C 165.933594 191.242188 165.628906 189.15625 163.847656 186.816406 C 160.953125 182.921875 158.894531 178.242188 157.667969 172.785156 C 156.441406 167.332031 155.996094 161.429688 156.332031 155.082031 C 156.664062 148.734375 158.335938 143.53125 161.339844 139.464844 C 164.347656 135.398438 167.855469 133.363281 171.863281 133.363281 C 173.761719 133.363281 175.347656 133.867188 176.625 134.867188 C 177.90625 135.871094 178.9375 137.152344 179.714844 138.710938 C 180.496094 140.269531 181.050781 141.914062 181.386719 143.636719 C 181.539062 144.425781 181.652344 145.195312 181.734375 145.945312 L 181.734375 226.136719 C 181.488281 228.820312 180.929688 231.359375 180.050781 233.753906 C 178.824219 237.09375 177.183594 239.964844 175.125 242.355469 C 173.066406 244.753906 170.640625 246.644531 167.855469 248.035156 Z M 244.289062 241.855469 C 239.667969 247.367188 233.234375 250.125 224.996094 250.125 C 221.878906 250.125 218.925781 249.429688 216.140625 248.039062 C 213.359375 246.648438 210.933594 244.753906 208.875 242.359375 C 206.8125 239.964844 205.171875 237.097656 203.949219 233.757812 C 203.070312 231.363281 202.511719 228.820312 202.265625 226.140625 L 202.265625 145.949219 C 202.347656 145.199219 202.460938 144.429688 202.613281 143.640625 C 202.945312 141.917969 203.503906 140.273438 204.28125 138.714844 C 205.058594 137.15625 206.089844 135.875 207.371094 134.871094 C 208.648438 133.871094 210.238281 133.367188 212.132812 133.367188 C 216.140625 133.367188 219.648438 135.402344 222.65625 139.46875 C 225.664062 143.535156 227.332031 148.738281 227.667969 155.085938 C 228 161.433594 227.554688 167.335938 226.332031 172.789062 C 225.105469 178.246094 223.046875 182.925781 220.152344 186.820312 C 218.371094 189.160156 218.0625 191.246094 219.234375 193.085938 C 220.402344 194.921875 222.492188 195.84375 225.5 195.84375 C 233.070312 195.84375 239.25 197.957031 244.039062 202.1875 C 248.828125 206.421875 251.222656 212.4375 251.222656 220.230469 C 251.222656 229.140625 248.910156 236.351562 244.289062 241.859375 Z M 244.289062 241.855469 "/></g></svg>